<?xml version="1.0" encoding="UTF-8" standalone="no"?>
<!-- Created with Inkscape (http://www.inkscape.org/) -->

<svg
   width="16.0px"
   height="16.0px"
   viewBox="0 0 16.0 16.0"
   version="1.1"
   id="SVGRoot"
   sodipodi:docname="logo_base.svg"
   inkscape:version="1.2.2 (732a01da63, 2022-12-09)"
   xmlns:inkscape="http://www.inkscape.org/namespaces/inkscape"
   xmlns:sodipodi="http://sodipodi.sourceforge.net/DTD/sodipodi-0.dtd"
   xmlns="http://www.w3.org/2000/svg"
   xmlns:svg="http://www.w3.org/2000/svg">
  <sodipodi:namedview
     id="namedview415"
     pagecolor="#ffffff"
     bordercolor="#000000"
     borderopacity="0.25"
     inkscape:showpageshadow="2"
     inkscape:pageopacity="0.0"
     inkscape:pagecheckerboard="0"
     inkscape:deskcolor="#d1d1d1"
     inkscape:document-units="px"
     showgrid="true"
     inkscape:zoom="34.147147"
     inkscape:cx="8.8587197"
     inkscape:cy="10.630464"
     inkscape:window-width="1920"
     inkscape:window-height="1027"
     inkscape:window-x="1912"
     inkscape:window-y="22"
     inkscape:window-maximized="1"
     inkscape:current-layer="layer1">
    <inkscape:grid
       type="xygrid"
       id="grid421" />
  </sodipodi:namedview>
  <defs
     id="defs410" />
  <g
     inkscape:label="Layer 1"
     inkscape:groupmode="layer"
     id="layer1">
    <path
       style="fill:#89a512;fill-opacity:1;stroke-width:0.158;stroke-dasharray:none"
       d="M 8.0140917,15.216768 C 10.889623,11.264875 13.128005,7.2212344 14.505953,3.4891882 14.795397,2.7052662 14.223391,3.4085237 13.352004,4.9079248 11.003478,8.9490442 8.6305806,12.320931 6.7449933,14.296463 L 5.7206871,15.369632 5.4266766,14.532922 C 3.5702243,9.2497411 7.938805,3.026781 15.292457,0.47929407 15.829876,0.29311989 15.940306,0.95725812 15.752689,3.2471125 15.248274,9.4033429 12.584361,13.697165 8.2461028,15.346567 7.8187617,15.509036 7.8064372,15.502153 8.0140917,15.21676 Z M 2.8692335,14.737726 C 0.80263518,13.151238 -0.14920548,10.245922 0.26853134,6.7995729 0.5823475,4.2105592 0.51944942,4.2498338 2.2689337,5.5504485 4.4732983,7.1892275 5.0056928,7.9940336 4.6333849,9.1247263 4.2783447,10.202966 4.1968251,12.959242 4.4900231,13.97207 c 0.094116,0.325132 0.1432217,0.591141 0.109124,0.591141 -0.1188959,0 -1.675779,-2.293373 -2.2472942,-3.310383 -1.1700235,-2.0820402 -0.5785275,0.385937 0.6706075,2.798065 0.3704112,0.715276 0.665823,1.299346 0.6564692,1.297934 -0.00928,-0.0012 -0.3737089,-0.276414 -0.809682,-0.611101 z"
       id="path239"
       sodipodi:nodetypes="sssscssssssssssssscs" />
  </g>
</svg>
